# xmcd CD database file
#
# Track frame offsets:
#	150
#	15256
#	26759
#	38383
#	50258
#	69482
#	84976
#	99183
#	114218
#	124520
#	138004
#	152158
#	166843
#	177566
#	190828
#
# Disc length: 2685 seconds
#
# Revision: 0
# Processed by: cddbd v1.5.1PL2 Copyright (c) Steve Scherf et al.
# Submitted via: CDex 1.51
#
DISCID=a50a7b0f
DTITLE=Various Artist - Classic Country 1975-1979
DYEAR=1999
DGENRE=Country
TTITLE0=01-  Glen Campbell - Rhinestone Cowboy
TTITLE1=02-  Crystal Gayle-Don't Make My Brown Eyes Blue
TTITLE2=03-  Heaven's Just A Sin Away - The Kendalls
TTITLE3=04-  Freddy Fender - Before The Next Teardrop Falls
TTITLE4=05-  Marty Robbins - El Paso City
TTITLE5=06-  B.J._Thomas-Another_Somebody_Done_Somebody_Wrong_Song
TTITLE6=07-  merle haggard - always wanting you
TTITLE7=08-  Willie Nelson and Waylon Jennings - Lukenbach Texas
TTITLE8=09-  statler brothers - do you know you are my sunshine
TTITLE9=10-  Dolly Parton - Here You Come Again
TTITLE10=11-  John Conlee - Lady Lay Down
TTITLE11=12-  Bellamy Brothers - If I Said You Had a Beautiful Body
TTITLE12=13-  Willie Nelson - Blue Eyes Crying In The Rain
TTITLE13=14-   Conway Twitty - Happy Birthday Darlin'
TTITLE14=15-   Sleeping Single In A Double Bed
EXTD=YEAR: 1999
EXTT0=
EXTT1=
EXTT2=
EXTT3=
EXTT4=
EXTT5=
EXTT6=
EXTT7=
EXTT8=
EXTT9=
EXTT10=
EXTT11=
EXTT12=
EXTT13=
EXTT14=
PLAYORDER=
